<svg version="1.1" baseProfile="full" width="100%" height="100%"
  xmlns="http://www.w3.org/2000/svg" preserveAspectRatio="none"
  viewBox="0 0 1280 500">

  <rect x="1100" y="320" rx="40" ry="40" width="150" height="150"
    stroke="#46c463" fill="#46c463">
    <animateTransform attributeType="XML" attributeName="transform" begin="0s"
      dur="12s" type="rotate" from="0 1175 395" to="360 1175 395"
      repeatCount="indefinite" />
  </rect>

  <path
    d="M 100 350 A 150 150 0 1 1 400 350 Q400 370 380 370 L 250 370 L 120 370 Q100 370 100 350"
    stroke="#f9cc44" fill="#f9cc44">
    <animateMotion path="M 880 -100 L 880 -100 L 850 -100" dur="12s" begin="0s"
      repeatCount="indefinite" />
    <animateTransform attributeType="XML" attributeName="transform" begin="0s"
      dur="12s" type="rotate" values="0 210 530 ; -30 210 530 ; 0 210 530"
      keyTimes="0 ; 0.5 ; 1" repeatCount="indefinite" />
  </path>

  <circle cx="60" cy="150" r="20" stroke="#ee5ba7" fill="#ee5ba7">
    <animateMotion path="M 0 0 L 40 20 Z" dur="12s" repeatCount="indefinite" />
  </circle>

  <!-- 三角形 -->
  <path
    d="M 165 580 L 270 580 Q275 578 270 570 L 223 483 Q220 480 217 483 L 165 570 Q160 578 165 580"
    stroke="#fa5e4f" fill="#fa5e4f">
    <animateMotion path="M -100 -120 L -100 -120 L -100 -120" dur="12s"
      begin="0s" repeatCount="indefinite" />
    <animateTransform attributeType="XML" attributeName="transform" begin="0s"
      dur="12s" type="rotate" from="0 220 540" to="360 220 540"
      repeatCount="indefinite" />
  </path>

  <circle cx="600" cy="100" r="30" stroke="#6b7785" fill="#6b7785">
    <animateMotion path="M 0 0 L -20 40 Z" dur="12s" repeatCount="indefinite" />
  </circle>

  <path d="M 100 350 A 40 40 0 1 1 180 350 L 180 430 A 40 40 0 1 1 100 430 Z"
    stroke="#6b7785" fill="#6b7785">
    <animateMotion path="M 340 80 L 380 60 L 340 90" dur="12s" begin="0s"
      repeatCount="indefinite" />
    <animateTransform attributeType="XML" attributeName="transform" begin="0s"
      dur="12s" type="rotate" values="0 140 390; -60 140 390; 0 140 390"
      keyTimes="0 ; 0.5 ; 1" repeatCount="indefinite" />
  </path>
</svg>