<?xml version="1.0" standalone="no"?><!DOCTYPE svg PUBLIC "-//W3C//DTD SVG 1.1//EN" "http://www.w3.org/Graphics/SVG/1.1/DTD/svg11.dtd"><svg t="1641598633830" class="icon" viewBox="0 0 1024 1024" version="1.1" xmlns="http://www.w3.org/2000/svg" p-id="2347" xmlns:xlink="http://www.w3.org/1999/xlink" width="200" height="200"><defs><style type="text/css"></style></defs><path d="M382.48 698.688c-8.66 0.277-16.34 7.787-17.514 16.939-1.088 9.088 4.821 16.384 13.546 16.256 8.875-0.15 16.896-7.872 18.027-17.174 0.917-9.28-5.397-16.512-14.059-16.021z m-58.944 10.41c-26.666 1.26-50.816 24.513-54.293 52.566-3.627 28.224 15.168 50.859 42.027 50.39 27.242-0.427 52.352-24.3 55.68-53.1 2.986-28.863-16.363-50.986-43.414-49.855z" fill="#FFFFFF" p-id="2348"></path><path d="M766.46 673.685c-12.204-127.594-183.852-215.53-383.404-196.437-199.552 19.093-351.424 137.984-339.22 265.6C56.058 870.443 227.706 958.4 427.258 939.307c199.552-19.115 351.424-138.006 339.2-265.622z m-251.137 49.451c-9.067 83.03-89.237 151.339-175.85 150.976-83.606-0.32-139.563-64.981-127.809-142.997 11.542-76.523 84.48-140.886 165.718-145.238 84.053-4.693 147.008 55.979 137.941 137.259z" fill="#FFFFFF" p-id="2349"></path><path d="M1022.096 313.877C988.411 125.653 838.758 50.091 735.056 42.88c-19.498-1.877-37.61 9.877-40.298 28.715-2.582 18.325 10.538 36.565 28.714 40.298 67.84 14.976 196.203 34.731 230.166 225.75 2.965 19.37 18.922 40.021 43.05 34.773 17.664-3.904 33.451-13.717 25.408-58.539zM720.38 261.291a24.363 24.363 0 0 0-27.499 17.45c-3.946 13.142 3.328 28.182 16.683 30.976 28.373 5.931 42.261 25.494 46.379 46.358 0 0 3.626 14.144 17.258 18.048 13.334 3.818 37.42-6.038 30.486-32.299-6.89-35.733-42.41-74.112-83.307-80.533z" fill="#E79014" p-id="2350"></path><path d="M737.638 160.427c-29.782-5.142-43.414 16.213-43.414 33.258 0 17.024 12.16 29.312 34.603 35.563 59.605 16.533 97.877 42.667 108.373 111.68 3.051 20.032 21.355 30.72 34.646 30.72 17.941 0 32.47-14.55 32.47-32.47 0-0.66-0.065-1.322-0.108-1.962l0.171-0.043c-11.35-88.533-77.696-161.365-166.741-176.746z" fill="#E79014" p-id="2351"></path><path d="M731.6 697.472c-11.968 124.053-188.842 223.381-380.65 218.496-177.75-4.395-296.192-97.984-276.566-206.57C93.52 603.924 238.8 512.767 409.68 502.677c183.552-10.817 333.59 74.58 321.92 194.794z m-27.968-198.805c-7.082 0.192-10.069 1.024-11.136-1.515-0.874-2.07 0.171-4.33 3.99-13.973 10.645-26.859 27.562-82.07-7.232-112.875-22.955-20.33-120.15-35.84-222.57 35.2-5.1 3.541-13.377 11.093-17.558 9.707-4.608-1.558-5.59-6.528-6.208-15.915-3.35-50.603 39.21-191.232-70.57-179.563-116.694 19.755-274.134 204.16-319.126 293.355-159.68 316.459 71.232 445.397 297.11 452.139 245.055 7.232 493.311-131.904 525.951-318.038 21.781-124.245-124.48-149.589-172.65-148.522z" fill="#D62629" p-id="2352"></path><path d="M377.382 585.877c-81.238 4.374-154.176 68.715-165.718 145.238-11.733 78.016 44.203 142.677 127.808 142.997 86.614 0.363 166.784-67.947 175.851-150.976 9.067-81.28-53.888-141.952-137.941-137.259zM366.95 758.955c-3.328 28.8-28.438 52.65-55.68 53.098-26.88 0.47-45.675-22.165-42.027-50.389 3.477-28.053 27.627-51.307 54.293-52.565 27.051-1.131 46.4 20.992 43.414 49.856z m11.562-27.094c-8.704 0.128-14.613-7.168-13.546-16.256 1.173-9.13 8.853-16.661 17.514-16.938 8.64-0.491 14.976 6.741 14.06 16-1.132 9.322-9.153 17.045-18.028 17.194z" fill="#030000" p-id="2353"></path></svg>